<svg id="Layer_3" enable-background="new 0 0 64 64" height="512" viewBox="0 0 64 64" width="512" xmlns="http://www.w3.org/2000/svg"><path d="m40.277 51.288c-.468.67-1.138 1.199-1.944 1.483l-.666-1.885c.797-.282 1.333-1.04 1.333-1.886 0-1.103-.897-2-2-2s-2 .897-2 2v10c0 1.103.897 2 2 2s2-.897 2-2c-.881 0-1.745-.231-2.502-.67l1.004-1.73c.451.261.97.4 1.498.4 1.654 0 3-1.346 3-3 0-1.179-.688-2.225-1.723-2.712z"/><path d="m27 47c-1.103 0-2 .897-2 2 0 .846.536 1.604 1.333 1.887l-.666 1.885c-.806-.284-1.476-.813-1.944-1.483-1.035.486-1.723 1.532-1.723 2.711 0 1.654 1.346 3 3 3 .528 0 1.047-.139 1.498-.4l1.004 1.73c-.757.439-1.621.67-2.502.67 0 1.103.897 2 2 2s2-.897 2-2v-10c0-1.103-.897-2-2-2z"/><path d="m32 25c-.338 0-.669-.023-1-.051v20.051h2v-20.051c-.331.028-.662.051-1 .051z"/><path d="m29 43v-5.674c0-2.893-1.536-5.493-4.021-6.919-.026.757-.116 1.497-.276 2.213 1.434 1.123 2.297 2.832 2.297 4.706v5.674z"/><path d="m35 37.326v5.674h2v-5.674c0-1.874.863-3.583 2.297-4.706-.16-.716-.251-1.456-.276-2.213-2.485 1.426-4.021 4.027-4.021 6.919z"/><path d="m32 3c-5.514 0-10 4.486-10 10s4.486 10 10 10 10-4.486 10-10-4.486-10-10-10zm6.924 9.383c-.154.374-.52.617-.924.617h-1v5c0 .553-.447 1-1 1h-8c-.553 0-1-.447-1-1v-5h-1c-.404 0-.77-.243-.924-.617-.155-.374-.069-.804.217-1.09l6-6c.391-.391 1.023-.391 1.414 0l6 6c.286.286.372.716.217 1.09z"/><path d="m28.414 11h7.172l-3.586-3.586z"/><path d="m29 13h6v4h-6z"/><path d="m8 31h10v2h-10z"/><path d="m13 20c-5.514 0-10 4.486-10 10s4.486 10 10 10 10-4.486 10-10-4.486-10-10-10zm7 14c0 .553-.447 1-1 1h-1v1h-2v-1h-6v1h-2v-1h-1c-.553 0-1-.447-1-1v-3c0-.807.483-1.5 1.174-1.816l.857-3.426c.111-.446.51-.758.969-.758h8c.459 0 .858.312.97.758l.857 3.426c.69.316 1.173 1.009 1.173 1.816z"/><path d="m16.219 27h-6.438l-.5 2h7.438z"/><path d="m51 20c-5.514 0-10 4.486-10 10s4.486 10 10 10 10-4.486 10-10-4.486-10-10-10zm0 18c-3.309 0-6-2.691-6-6 0-2.466 1.496-4.587 3.627-5.509l-1.522-3.044c-.155-.31-.139-.678.044-.973s.504-.474.851-.474h6c.347 0 .668.18.851.475s.199.663.044.973l-1.522 3.044c2.131.921 3.627 3.042 3.627 5.508 0 3.309-2.691 6-6 6z"/><circle cx="51" cy="32" r="4"/><path d="m51 26c.126 0 .249.011.372.019l1.01-2.019h-2.764l1.009 2.019c.124-.008.247-.019.373-.019z"/></svg>